<svg id="visual" viewBox="0 0 900 600" width="900" height="600" xmlns="http://www.w3.org/2000/svg" xmlns:xlink="http://www.w3.org/1999/xlink" version="1.1"><path d="M0 436L16.7 449C33.3 462 66.7 488 100 502.2C133.3 516.3 166.7 518.7 200 518.2C233.3 517.7 266.7 514.3 300 508.8C333.3 503.3 366.7 495.7 400 499.5C433.3 503.3 466.7 518.7 500 513.5C533.3 508.3 566.7 482.7 600 468.2C633.3 453.7 666.7 450.3 700 448.8C733.3 447.3 766.7 447.7 800 447C833.3 446.3 866.7 444.7 883.3 443.8L900 443L900 601L883.3 601C866.7 601 833.3 601 800 601C766.7 601 733.3 601 700 601C666.7 601 633.3 601 600 601C566.7 601 533.3 601 500 601C466.7 601 433.3 601 400 601C366.7 601 333.3 601 300 601C266.7 601 233.3 601 200 601C166.7 601 133.3 601 100 601C66.7 601 33.3 601 16.7 601L0 601Z" fill="#ffffff" stroke-linecap="round" stroke-linejoin="miter"></path></svg>